# Blender v3.0.1 OBJ File: 'Prob_2.blend'
# www.blender.org
mtllib Prob_2.mtl
o Cube_Cube.003
v 0.472672 -0.347522 0.411164
v 0.429176 0.466653 0.502344
v 0.388108 -0.089284 -0.242878
v 0.324431 0.494332 0.030178
v 0.000000 -0.223627 -0.526514
v 0.000000 0.595159 -0.143571
v 0.541408 0.236632 -0.251332
v 0.505586 -0.299174 0.033158
v 0.505150 0.685328 0.263057
v 0.530610 0.036368 0.615681
v 0.000000 -0.425273 0.568841
v 0.000000 0.609568 0.609568
v 0.000000 0.345195 -0.622252
v 0.971898 0.510090 -0.041663
v 0.000000 0.014713 0.791340
v 0.000000 -0.479361 -0.087201
v 0.000000 1.277811 0.020713
v -0.472672 -0.347522 0.411164
v -0.429176 0.466653 0.502344
v -0.388108 -0.089284 -0.242878
v -0.324431 0.494332 0.030178
v -0.541408 0.236632 -0.251332
v -0.505586 -0.299174 0.033158
v -0.505150 0.685328 0.263057
v -0.530610 0.036368 0.615681
v -0.971898 0.510090 -0.041663
vt 0.500000 0.375000
vt 0.625000 0.375000
vt 0.625000 0.500000
vt 0.500000 0.500000
vt 0.375000 0.375000
vt 0.375000 0.500000
vt 0.500000 0.625000
vt 0.375000 0.625000
vt 0.625000 0.625000
vt 0.625000 0.750000
vt 0.500000 0.750000
vt 0.375000 0.750000
vt 0.500000 0.875000
vt 0.375000 0.875000
vt 0.625000 0.875000
vt 0.250000 0.500000
vt 0.250000 0.625000
vt 0.250000 0.750000
vt 0.750000 0.500000
vt 0.750000 0.625000
vt 0.750000 0.750000
vt 0.500000 0.500000
vt 0.625000 0.500000
vt 0.375000 0.500000
vt 0.375000 0.625000
vt 0.500000 0.625000
vt 0.625000 0.625000
vt 0.500000 0.750000
vt 0.625000 0.750000
vt 0.375000 0.750000
vn 0.4475 0.7974 -0.4048
vn 0.5687 -0.1906 -0.8001
vn 0.6346 -0.3951 -0.6642
vn -0.0912 0.7473 -0.6582
vn 0.6371 0.3872 0.6665
vn 0.8890 -0.4123 0.1993
vn 0.3212 -0.4535 0.8314
vn 0.3041 0.2912 0.9070
vn 0.4848 -0.6945 -0.5317
vn 0.2554 -0.9667 0.0135
vn 0.5843 0.2326 -0.7775
vn 0.3824 0.6129 0.6915
vn -0.4475 0.7974 -0.4048
vn -0.5687 -0.1906 -0.8001
vn -0.6346 -0.3951 -0.6642
vn 0.0912 0.7473 -0.6582
vn -0.6371 0.3872 0.6665
vn -0.8890 -0.4123 0.1993
vn -0.3212 -0.4535 0.8314
vn -0.3041 0.2912 0.9070
vn -0.4848 -0.6945 -0.5317
vn -0.2554 -0.9667 0.0135
vn -0.5843 0.2326 -0.7775
vn -0.3824 0.6129 0.6915
usemtl Prob
s off
f 13/1/1 6/2/1 4/3/1 7/4/1
f 5/5/2 13/1/2 7/4/2 3/6/2
f 3/6/3 7/4/3 14/7/3 8/8/3
f 7/4/4 4/3/4 9/9/4 14/7/4
f 14/7/5 9/9/5 2/10/5 10/11/5
f 8/8/6 14/7/6 10/11/6 1/12/6
f 1/12/7 10/11/7 15/13/7 11/14/7
f 10/11/8 2/10/8 12/15/8 15/13/8
f 5/16/9 3/6/9 8/8/9 16/17/9
f 16/17/10 8/8/10 1/12/10 11/18/10
f 4/3/11 6/19/11 17/20/11 9/9/11
f 9/9/12 17/20/12 12/21/12 2/10/12
f 13/1/13 22/22/13 21/23/13 6/2/13
f 5/5/14 20/24/14 22/22/14 13/1/14
f 20/24/15 23/25/15 26/26/15 22/22/15
f 22/22/16 26/26/16 24/27/16 21/23/16
f 26/26/17 25/28/17 19/29/17 24/27/17
f 23/25/18 18/30/18 25/28/18 26/26/18
f 18/30/19 11/14/19 15/13/19 25/28/19
f 25/28/20 15/13/20 12/15/20 19/29/20
f 5/16/21 16/17/21 23/25/21 20/24/21
f 16/17/22 11/18/22 18/30/22 23/25/22
f 21/23/23 24/27/23 17/20/23 6/19/23
f 24/27/24 19/29/24 12/21/24 17/20/24
