# Blender v2.93.1 OBJ File: 'crystal.blend'
# www.blender.org
mtllib crystal.mtl
o crystal_cluster_on_rock_Cylinder
v -0.667822 1.205398 -0.977089
v -1.249560 2.392313 -1.176896
v 0.166510 1.614574 -0.301937
v -0.245235 2.885420 -0.363705
v -0.152176 1.458283 0.790482
v -0.628298 2.696612 0.951977
v -1.183468 0.952512 0.790482
v -1.870336 2.086241 0.952483
v -1.502155 0.796221 -0.301937
v -2.254401 1.898145 -0.364028
v -1.988645 3.742124 0.036998
v -0.465282 -0.267728 0.642496
v 0.372943 0.143358 0.642496
v 0.631969 0.270390 -0.245411
v -0.046169 -0.062185 -0.794169
v -0.724307 -0.394760 -0.245412
v -0.243441 1.215167 0.910840
v -0.243106 2.376623 1.514862
v 0.086309 1.591513 -0.019625
v 0.160387 2.837131 0.376316
v 1.131323 1.447761 -0.078103
v 1.439097 2.661232 0.304760
v 1.447426 0.982572 0.816221
v 1.825891 2.092013 1.399082
v 0.597775 0.838821 1.427421
v 0.786232 1.916114 2.146966
v 1.063708 3.672208 1.805317
v 1.090928 -0.206488 0.208941
v 0.832972 0.173129 -0.520871
v -0.019809 0.290437 -0.473150
v -0.288901 -0.016679 0.286155
v 0.397572 -0.323796 0.707710
v 0.649975 -0.238031 -0.576093
v 0.918066 0.064133 0.100877
v 0.302982 0.357507 0.497193
v -0.345252 0.236659 0.065161
v -0.130799 -0.131403 -0.598167
v 0.769633 3.377541 -1.857796
v 1.160447 1.769560 -1.903583
v 0.900973 0.804652 -1.244358
v -0.010290 1.929442 -1.936681
v -0.055799 0.935314 -1.271407
v -0.331854 2.481336 -0.942049
v -0.318594 1.386344 -0.458554
v 0.640146 2.662543 -0.294235
v 0.475763 1.534433 0.070866
v 1.562438 2.222641 -0.888495
v 1.229497 1.174928 -0.414788
v -0.744427 0.308718 0.988265
v -1.123744 0.729530 1.585188
v -0.540053 0.846479 0.656408
v -0.873666 1.387550 1.179118
v 0.087714 0.970905 0.833920
v -0.105511 1.539802 1.396327
v 0.271321 0.510046 1.275486
v 0.119156 0.975880 1.936640
v -0.242970 0.100791 1.370876
v -0.510146 0.475104 2.053363
v -0.769366 1.542958 2.349594
v 0.459591 0.013991 0.587596
v 0.309758 0.390076 0.227257
v -0.202530 0.288537 0.082399
v -0.369309 -0.150302 0.353210
v 0.039904 -0.319980 0.665439
v 1.313195 0.430148 0.188385
v 1.648419 0.851018 0.213600
v 0.950031 0.669018 0.191552
v 1.204039 1.143306 0.217476
v 0.817742 0.717793 -0.219638
v 1.042167 1.202989 -0.285669
v 1.099148 0.509069 -0.476936
v 1.386504 0.947588 -0.600506
v 1.405354 0.331294 -0.224764
v 1.761188 0.730058 -0.291941
v 1.750725 1.471805 -0.224264
v 0.793422 0.042781 -0.365501
v 0.563781 0.213110 -0.155533
v 0.671735 0.173307 0.180018
v 0.968094 -0.021622 0.177433
v 1.043301 -0.102292 -0.159716
v -0.250097 0.255241 -1.318602
v -0.523086 0.637106 -1.698268
v -0.036803 0.724165 -0.920791
v -0.280339 1.173833 -1.243826
v -0.460456 0.779489 -0.429777
v -0.763207 1.236436 -0.680959
v -0.935581 0.344756 -0.524124
v -1.306781 0.736903 -0.786695
v -0.805572 0.020753 -1.073448
v -1.157750 0.365793 -1.417053
v -1.227885 1.324099 -1.548610
v -0.509100 -0.085626 -0.245471
v -0.127782 0.263274 -0.169752
v 0.212226 0.218873 -0.563821
v 0.041044 -0.157468 -0.883090
v -0.404759 -0.345659 -0.686338
v 0.612354 -0.578402 -0.359461
v 0.253941 -0.547422 -1.634767
v 1.412127 -0.578402 -1.168220
v 1.690609 -0.578402 0.218628
v -0.316367 0.171389 -0.778688
v 0.692958 0.075109 -1.250553
v 1.630292 -0.144740 -0.221345
v 0.674881 0.287117 0.078222
v 0.520745 -0.578402 0.378556
v 1.039840 -0.578402 1.269835
v -0.111858 -0.578402 1.074587
v 1.570503 -0.578402 0.325235
v 0.292264 -0.059569 1.339315
v -0.460140 0.134947 0.765210
v 1.496082 -0.138166 0.715359
v 0.761002 0.053057 0.672770
v 0.188918 -0.578402 0.203634
v 0.602527 -0.578402 0.274678
v 0.022543 -0.578402 0.349142
v 0.556309 -0.578402 0.231271
v 1.147528 -0.578402 0.346719
v 1.287557 -0.578402 0.447298
v 1.501804 -0.365947 0.429017
v 1.557464 -0.573097 0.310985
v 1.520766 -0.578402 0.327761
v 1.561966 -0.559660 0.314658
v -0.287052 0.215097 0.485528
v 1.426612 -0.047106 0.421433
v 0.571965 0.359475 0.348181
v 0.154248 0.179313 0.573586
v 0.993720 -0.058153 0.296706
v -0.230604 0.282268 0.418776
v 1.420843 0.050964 0.402517
v 1.140000 0.228199 0.244183
v -0.689295 -0.578402 -0.000113
v -0.557489 -0.578402 0.863543
v -1.598134 -0.578402 0.388442
v -1.240220 -0.578402 -0.721498
v -0.984479 -0.181969 0.933692
v -1.326040 -0.022071 -0.155117
v -0.467766 -0.031481 -0.789403
v -0.078763 -0.578402 0.094826
v -0.230918 -0.578402 -0.107620
v -0.096352 -0.578402 0.246779
v -0.222080 -0.578402 -0.766432
v -0.178861 -0.578402 -0.698856
v -0.053292 -0.578402 0.310301
v -0.432384 0.144325 -0.772501
v -0.371348 -0.149502 -0.789159
v -0.456990 -0.099065 -0.724717
v -0.219168 -0.578402 -0.782216
v -0.566042 -0.141617 -0.462178
v -0.435443 0.339996 -0.016610
v -0.402701 0.173867 0.094342
v -0.295611 -0.003916 0.455480
v -0.126319 -0.578402 0.484456
v -0.231042 -0.578402 0.614305
v -0.261630 -0.241563 0.821470
v -0.374570 -0.136407 0.841221
v -0.425343 -0.235106 0.796120
v -0.456465 0.046891 0.683199
v -0.374860 -0.026630 0.842170
vt 0.353715 0.574420
vt 0.354148 0.630695
vt 0.296881 0.626398
vt 0.306161 0.570836
vt 0.066714 0.631833
vt 0.058717 0.576098
vt 0.105916 0.575589
vt 0.105916 0.631381
vt 0.153022 0.576180
vt 0.145003 0.631833
vt 0.313825 0.685759
vt 0.249286 0.629036
vt 0.240089 0.573576
vt 0.296881 0.568915
vt 0.296413 0.625176
vt 0.452934 0.735152
vt 0.453432 0.781903
vt 0.398104 0.787972
vt 0.407016 0.740169
vt 0.296881 0.685135
vt 0.258576 0.688273
vt 0.416111 0.689837
vt 0.453432 0.685759
vt 0.109092 0.511618
vt 0.253789 0.511618
vt 0.405960 0.529817
vt 0.460197 0.511618
vt 0.460197 0.591748
vt 0.105903 0.690968
vt 0.074039 0.691335
vt 0.288489 0.900162
vt 0.253285 0.910964
vt 0.231528 0.878517
vt 0.253285 0.847663
vt 0.288489 0.861040
vt 0.315496 0.511618
vt 0.354148 0.514532
vt 0.137672 0.691335
vt 0.192805 0.627611
vt 0.232395 0.628048
vt 0.226032 0.685871
vt 0.193725 0.685514
vt 0.161239 0.628048
vt 0.153022 0.573520
vt 0.191647 0.572985
vt 0.240089 0.573520
vt 0.202085 0.511618
vt 0.350584 0.732551
vt 0.296881 0.732551
vt 0.329772 0.685759
vt 0.357526 0.566362
vt 0.354147 0.511618
vt 0.405960 0.511618
vt 0.399869 0.566362
vt 0.406764 0.839462
vt 0.448975 0.841472
vt 0.449756 0.894894
vt 0.415309 0.893254
vt 0.296881 0.861788
vt 0.347920 0.842822
vt 0.347920 0.917977
vt 0.153022 0.862484
vt 0.203904 0.843085
vt 0.203904 0.917832
vt 0.167966 0.685871
vt 0.299935 0.786321
vt 0.343824 0.786321
vt 0.337567 0.842822
vt 0.301752 0.842822
vt 0.398104 0.787972
vt 0.449756 0.790431
vt 0.394046 0.624091
vt 0.359491 0.624091
vt 0.354148 0.649222
vt 0.373912 0.624091
vt 0.405891 0.638963
vt 0.405891 0.673284
vt 0.373912 0.679625
vt 0.157762 0.790002
vt 0.198328 0.790002
vt 0.194697 0.843085
vt 0.161593 0.843085
vt 0.058717 0.793247
vt 0.107653 0.796215
vt 0.073243 0.842911
vt 0.107022 0.746083
vt 0.067030 0.743657
vt 0.075017 0.691335
vt 0.107653 0.693314
vt 0.395676 0.908691
vt 0.347920 0.908691
vt 0.370811 0.842822
vt 0.202660 0.739850
vt 0.153022 0.739850
vt 0.179818 0.685871
vt 0.453432 0.704511
vt 0.470556 0.685759
vt 0.494636 0.704511
vt 0.492395 0.734851
vt 0.466929 0.734851
vt 0.287825 0.742856
vt 0.288489 0.789107
vt 0.240089 0.781171
vt 0.248271 0.736371
vt 0.397401 0.733848
vt 0.358566 0.723551
vt 0.366412 0.685759
vt 0.398104 0.694162
vt 0.398104 0.770736
vt 0.350584 0.758136
vt 0.454443 0.635400
vt 0.414110 0.635400
vt 0.421831 0.591748
vt 0.454745 0.591748
vt 0.356102 0.829051
vt 0.249042 0.847663
vt 0.256211 0.688273
vt 0.288489 0.693565
vt 0.455313 0.677467
vt 0.405960 0.677467
vt 0.083934 0.872765
vt 0.107429 0.883199
vt 0.101681 0.912140
vt 0.082508 0.903626
vt 0.062281 0.883199
vt 0.058717 0.855677
vt 0.085211 0.842911
vt 0.113961 0.855677
vt 0.487503 0.685328
vt 0.455313 0.677161
vt 0.487503 0.641261
vt 0.236676 0.730524
vt 0.202660 0.730524
vt 0.218676 0.685871
vt 0.140776 0.729905
vt 0.141216 0.764520
vt 0.107653 0.761531
vt 0.113348 0.727462
vt 0.453402 0.820128
vt 0.481354 0.820128
vt 0.479372 0.853744
vt 0.456562 0.853744
vt 0.468889 0.742247
vt 0.497284 0.734851
vt 0.497284 0.780558
vt 0.117123 0.800156
vt 0.453432 0.768617
vt 0.064839 0.912140
vt 0.207525 0.761297
vt 0.235325 0.761297
vt 0.234523 0.794281
vt 0.211837 0.794281
vt 0.449756 0.787972
vt 0.483959 0.787972
vt 0.118832 0.691335
vt 0.141216 0.693328
vt 0.361275 0.944877
vt 0.347920 0.926521
vt 0.361275 0.908691
vt 0.382884 0.916027
vt 0.382884 0.938392
vt 0.463823 0.554917
vt 0.481426 0.554285
vt 0.481736 0.577850
vt 0.467372 0.578366
vt 0.227521 0.870056
vt 0.227791 0.889210
vt 0.205620 0.886268
vt 0.209402 0.867652
vt 0.460197 0.532653
vt 0.481736 0.531879
vt 0.211597 0.917458
vt 0.470789 0.893569
vt 0.481432 0.905224
vt 0.456755 0.921986
vt 0.475795 0.875499
vt 0.449756 0.890071
vt 0.458606 0.872640
vt 0.267439 0.932512
vt 0.285658 0.932512
vt 0.284766 0.955086
vt 0.269898 0.955086
vt 0.465602 0.511618
vt 0.113039 0.943317
vt 0.092215 0.935058
vt 0.113039 0.912140
vt 0.213005 0.847558
vt 0.227791 0.849520
vt 0.501384 0.877340
vt 0.483169 0.877340
vt 0.484460 0.853744
vt 0.499324 0.853744
vt 0.264721 0.910964
vt 0.287014 0.910964
vt 0.467405 0.853744
vt 0.481432 0.856077
vt 0.503720 0.899747
vt 0.481432 0.899747
vt 0.214952 0.917458
vt 0.225940 0.926107
vt 0.223399 0.940101
vt 0.210841 0.940101
vt 0.205620 0.926107
vt 0.400027 0.923540
vt 0.417146 0.920106
vt 0.416767 0.948163
vt 0.403028 0.950920
vt 0.485320 0.616871
vt 0.485320 0.639429
vt 0.455313 0.641261
vt 0.459061 0.618516
vt 0.398104 0.898730
vt 0.417674 0.894894
vt 0.114608 0.829466
vt 0.107653 0.803791
vt 0.143640 0.800156
vt 0.231528 0.949010
vt 0.235679 0.920676
vt 0.264721 0.946482
vt 0.115569 0.901892
vt 0.113961 0.877227
vt 0.145246 0.877175
vt 0.142940 0.901892
vt 0.442749 0.923540
vt 0.437315 0.950920
vt 0.143640 0.838542
vt 0.127809 0.842911
vt 0.264721 0.910964
vt 0.463531 0.593068
vt 0.484606 0.591748
vt 0.234772 0.822316
vt 0.207660 0.822215
vt 0.210288 0.794281
vt 0.232047 0.794362
vt 0.447037 0.898813
vt 0.139821 0.928920
vt 0.117854 0.928920
vt 0.236676 0.847558
vt 0.205620 0.847558
vt 0.071512 0.945980
vt 0.058717 0.928473
vt 0.071512 0.912140
vt 0.092215 0.919553
vt 0.092215 0.940467
vt 0.660102 0.196467
vt 0.608009 0.216541
vt 0.610031 0.211338
vt 0.600188 0.180429
vt 0.582830 0.171634
vt 0.587271 0.158555
vt 0.600256 0.154989
vt 0.611772 0.135900
vt 0.648418 0.303543
vt 0.616477 0.278160
vt 0.620076 0.263415
vt 0.752465 0.125189
vt 0.661753 0.120686
vt 0.665846 0.114933
vt 0.752465 0.235147
vt 0.587635 0.449943
vt 0.572554 0.466226
vt 0.598944 0.436641
vt 0.598944 0.467129
vt 0.591406 0.448461
vt 0.590324 0.447760
vt 0.583504 0.164162
vt 0.633493 0.303543
vt 0.675944 0.314939
vt 0.675944 0.422563
vt 0.623500 0.354050
vt 0.624289 0.355199
vt 0.652169 0.330669
vt 0.671214 0.313340
vt 0.650984 0.321817
vt 0.843066 0.439515
vt 0.824436 0.334476
vt 0.888587 0.366871
vt 0.762762 0.431578
vt 0.752465 0.307541
vt 0.794845 0.389263
vt 0.864860 0.213164
vt 0.862944 0.215315
vt 0.966944 0.175623
vt 0.948120 0.203685
vt 0.909266 0.211857
vt 0.898514 0.211452
vt 0.888587 0.283362
vt 0.824436 0.283362
vt 0.787989 0.444885
vt 0.816367 0.440464
vt 0.864935 0.124387
vt 0.841158 0.182086
vt 0.846541 0.142261
vt 0.835360 0.102783
vt 0.866794 0.209099
vt 0.972023 0.077292
vt 0.856462 0.033275
vt 0.813130 0.072518
vt 0.811031 0.071843
vt 0.835923 0.091598
vt 0.596836 0.213283
vt 0.541169 0.285012
vt 0.519181 0.184541
vt 0.633915 0.293268
vt 0.635759 0.297246
vt 0.552832 0.159656
vt 0.566881 0.163933
vt 0.636503 0.295707
vt 0.888587 0.449510
vt 0.928394 0.390908
vt 0.928394 0.483216
vt 0.572554 0.360005
vt 0.519181 0.392362
vt 0.539874 0.303543
vt 0.928394 0.428180
vt 0.938731 0.426575
vt 0.954862 0.446735
vt 0.652288 0.467500
vt 0.623500 0.448549
vt 0.652288 0.422563
vt 0.652146 0.432633
vt 0.740801 0.303543
vt 0.740801 0.305321
vt 0.739828 0.304379
vt 0.752465 0.126732
vt 0.784420 0.075126
vt 0.773234 0.194116
vt 0.572554 0.445073
vt 0.541486 0.434520
vt 0.560622 0.432334
vt 0.551164 0.430422
vt 0.936080 0.390908
vt 0.937332 0.400261
vt 0.954862 0.408739
vt 0.824436 0.437964
vt 0.810703 0.467645
vt 0.767223 0.438767
vt 0.768870 0.437567
vt 0.812703 0.135024
vt 0.845487 0.237916
vt 0.521734 0.141205
vt 0.587900 0.102010
vt 0.526250 0.040590
vt 0.628649 0.033275
vt 0.667231 0.114651
vt 0.723456 0.440201
vt 0.686041 0.427252
vt 0.726211 0.396681
vt 0.715238 0.406325
vt 0.940268 0.292629
vt 0.940268 0.390909
vt 0.906507 0.365077
vt 0.572554 0.406092
vt 0.575836 0.303543
vt 0.623500 0.358158
vt 0.675944 0.368424
vt 0.735864 0.303543
vt 0.726424 0.383956
vt 0.713020 0.383341
vt 0.726211 0.457072
vt 0.675944 0.464448
vt 0.720762 0.450129
vt 0.888587 0.283362
vt 0.623500 0.436641
vt 0.735864 0.396681
vt 0.851732 0.234166
vt 0.847735 0.283362
vt 0.835805 0.232162
vt 0.840440 0.232976
vt 0.948410 0.276533
vt 0.966136 0.186531
vt 0.972023 0.185844
vt 0.739828 0.325196
vt 0.735864 0.309840
vt 0.739828 0.303543
vn 0.5774 0.1479 -0.8030
vn 0.9011 0.3067 0.3065
vn 0.0537 -0.1090 0.9926
vn 0.1954 0.7128 -0.6736
vn -0.7940 -0.5248 0.3067
vn -0.4701 -0.3659 -0.8032
vn -0.8033 -0.5101 0.3073
vn -0.4790 -0.3510 -0.8046
vn -0.2252 0.4590 0.8594
vn -0.9599 0.0799 0.2686
vn 0.4733 0.8421 0.2586
vn -0.6801 0.2481 -0.6899
vn 0.8951 0.3229 0.3073
vn 0.4403 -0.8978 0.0000
vn 0.5708 0.1638 -0.8046
vn 0.0459 -0.0936 0.9946
vn 0.9242 -0.0871 -0.3720
vn -0.0116 0.3035 -0.9528
vn 0.9172 -0.1120 -0.3824
vn 0.0847 0.8360 -0.5421
vn -0.4290 0.2373 0.8716
vn -0.9496 0.1448 -0.2780
vn 0.5590 -0.5039 0.6585
vn 0.8895 0.4497 -0.0805
vn -0.7075 0.7058 0.0348
vn 0.5750 0.0678 0.8153
vn -0.0075 0.3297 -0.9441
vn -0.5984 -0.3447 0.7233
vn 0.5531 -0.5275 0.6449
vn -0.9484 0.1705 -0.2672
vn -0.6006 -0.3688 0.7094
vn -0.1467 -0.8978 -0.4152
vn 0.5953 0.1950 0.7795
vn 0.0332 0.0365 -0.9988
vn -0.0485 -0.5307 -0.8462
vn 0.8679 0.2236 -0.4435
vn 0.5852 0.7180 0.3768
vn -0.1334 -0.8843 0.4475
vn -0.9622 -0.1197 -0.2447
vn -0.5635 0.3532 0.7468
vn -0.0521 -0.5538 -0.8310
vn -0.5655 0.3274 0.7570
vn 0.9136 -0.3513 -0.2050
vn -0.3945 0.8476 0.3549
vn -0.7580 0.4347 -0.4863
vn 0.5897 0.1696 0.7896
vn -0.9614 -0.0952 -0.2580
vn 0.9070 -0.3749 -0.1918
vn 0.9314 0.3639 -0.0075
vn 0.0570 0.7116 -0.7003
vn 0.9376 0.3464 -0.0283
vn -0.1615 0.9801 -0.1157
vn -0.6556 -0.3454 0.6715
vn -0.8463 -0.0071 -0.5327
vn 0.5714 -0.5835 0.5771
vn 0.6192 0.6577 0.4290
vn -0.9273 0.3729 0.0331
vn 0.3170 -0.1813 0.9309
vn 0.0480 0.7302 -0.6815
vn -0.5346 -0.8027 0.2644
vn 0.5787 -0.5980 0.5545
vn -0.8580 0.0092 -0.5135
vn -0.5238 -0.8165 0.2428
vn 0.3260 -0.5831 -0.7441
vn -0.5809 0.1919 -0.7910
vn -0.8417 0.4332 0.3222
vn -0.5945 0.1679 -0.7864
vn -0.3626 0.9046 0.2240
vn 0.9757 -0.0062 0.2191
vn -0.0201 -0.0438 0.9988
vn 0.3966 -0.4511 -0.7995
vn -0.1848 0.6545 -0.7331
vn 0.3387 0.5044 0.7943
vn 0.6602 0.0775 -0.7471
vn -0.8290 0.4579 0.3210
vn 0.7526 -0.5824 0.3072
vn 0.3800 -0.4730 -0.7949
vn -0.0048 -0.0206 0.9998
vn 0.7350 -0.6039 0.3084
vn -0.5474 -0.8333 0.0773
vn -0.3744 0.2133 0.9024
vn 0.6090 0.6525 0.4509
vn -0.3879 0.2319 0.8921
vn 0.1506 0.9884 0.0192
vn -0.3452 -0.1524 -0.9261
vn 0.8421 0.0712 -0.5347
vn -0.7562 -0.6261 0.1903
vn -0.6579 0.6279 0.4158
vn 0.3354 0.5158 -0.7883
vn -0.9799 -0.0958 -0.1753
vn 0.6200 0.6330 0.4636
vn 0.0022 -0.7251 -0.6886
vn -0.7715 -0.6110 0.1776
vn 0.8527 0.0531 -0.5197
vn -0.0100 -0.7096 -0.7045
vn 0.5168 -0.6782 0.5224
vn -0.0000 -1.0000 0.0000
vn 0.0087 -0.9998 -0.0179
vn -0.0191 -0.9996 -0.0189
vn 0.5071 -0.4483 0.7361
vn -0.8345 -0.0558 -0.5482
vn 0.3643 0.2894 -0.8852
vn 0.9785 -0.0632 -0.1965
vn -0.6296 0.7699 -0.1041
vn -0.2753 0.6380 -0.7191
vn 0.6314 0.6396 -0.4384
vn 0.8964 0.3344 0.2908
vn 0.2137 0.9609 -0.1761
vn -0.0664 0.9978 -0.0037
vn 0.0207 0.9873 -0.1573
vn 0.3706 0.9180 -0.1414
vn 0.4079 0.9130 -0.0019
vn -0.0170 -0.9420 -0.3351
vn 0.8381 -0.2756 0.4708
vn -0.1566 -0.3494 0.9238
vn -0.9947 -0.0893 0.0513
vn -0.9331 -0.3484 0.0885
vn 0.7261 -0.0559 -0.6853
vn 0.4223 0.5079 0.7508
vn -0.6038 0.0504 0.7955
vn -0.8274 0.2152 -0.5188
vn 0.9445 0.2494 -0.2137
vn 0.2222 0.9236 0.3123
vn 0.0819 0.9716 0.2218
vn 0.0686 0.8320 0.5505
vn 0.1930 0.9670 -0.1665
vn 0.2068 0.8419 0.4984
vn 0.5314 -0.4829 0.6960
vn -0.3548 -0.5197 0.7772
vn -0.9389 0.1634 -0.3028
vn -0.0582 -0.0395 -0.9975
vn 0.1520 -0.0123 0.9883
vn -0.6958 0.6463 0.3132
vn -0.4754 0.5905 -0.6521
vn 0.0957 0.0762 -0.9925
vn -0.0517 0.9713 0.2320
vn -0.2808 0.9004 0.3323
vn -0.0100 0.9090 -0.4167
vn -0.9343 0.1573 0.3200
usemtl crystal
s off
f 1/1/1 2/2/1 4/3/1 3/4/1
f 3/5/2 4/6/2 6/7/2 5/8/2
f 5/8/3 6/7/3 8/9/3 7/10/3
f 4/3/4 2/2/4 11/11/4
f 7/12/5 8/13/5 10/14/5 9/15/5
f 9/16/6 10/17/6 2/18/6 1/19/6
f 7/12/7 9/15/7 16/20/7 12/21/7
f 9/16/8 1/19/8 15/22/8 16/23/8
f 8/9/9 6/7/9 11/24/9
f 10/14/10 8/13/10 11/25/10
f 6/7/11 4/6/11 11/24/11
f 2/26/12 10/27/12 11/28/12
f 3/5/13 5/8/13 13/29/13 14/30/13
f 15/31/14 14/32/14 13/33/14 12/34/14 16/35/14
f 1/1/15 3/4/15 14/36/15 15/37/15
f 5/8/16 7/10/16 12/38/16 13/29/16
f 21/39/17 23/40/17 28/41/17 29/42/17
f 19/43/18 20/44/18 22/45/18 21/39/18
f 21/39/19 22/45/19 24/46/19 23/40/19
f 22/45/20 20/44/20 27/47/20
f 18/48/21 26/49/21 27/50/21
f 17/51/22 18/52/22 20/53/22 19/54/22
f 23/55/23 25/56/23 32/57/23 28/58/23
f 24/46/24 22/45/24 27/47/24
f 20/59/25 18/60/25 27/61/25
f 26/62/26 24/63/26 27/64/26
f 19/43/27 21/39/27 29/42/27 30/65/27
f 25/66/28 17/67/28 31/68/28 32/69/28
f 23/55/29 24/70/29 26/71/29 25/56/29
f 17/51/30 19/54/30 30/72/30 31/73/30
f 25/66/31 26/49/31 18/48/31 17/67/31
f 31/74/32 30/75/32 29/76/32 28/77/32 32/78/32
f 48/79/33 46/80/33 35/81/33 34/82/33
f 39/83/34 41/84/34 38/85/34
f 42/86/35 40/87/35 33/88/35 37/89/35
f 47/90/36 39/91/36 38/92/36
f 45/93/37 47/94/37 38/95/37
f 34/96/38 35/97/38 36/98/38 37/99/38 33/100/38
f 44/101/39 43/102/39 41/103/39 42/104/39
f 46/105/40 44/106/40 36/107/40 35/108/40
f 42/86/41 41/84/41 39/83/41 40/87/41
f 46/105/42 45/109/42 43/110/42 44/106/42
f 40/111/43 48/112/43 34/113/43 33/114/43
f 43/110/44 45/109/44 38/115/44
f 41/103/45 43/102/45 38/116/45
f 48/79/46 47/94/46 45/93/46 46/80/46
f 44/101/47 42/104/47 37/117/47 36/118/47
f 40/111/48 39/119/48 47/120/48 48/112/48
f 53/121/49 55/122/49 60/123/49 61/124/49
f 51/125/50 52/126/50 54/127/50 53/121/50
f 53/121/51 54/127/51 56/128/51 55/122/51
f 54/129/52 52/130/52 59/131/52
f 50/132/53 58/133/53 59/134/53
f 49/135/54 50/136/54 52/137/54 51/138/54
f 55/139/55 57/140/55 64/141/55 60/142/55
f 56/143/56 54/144/56 59/145/56
f 52/137/57 50/136/57 59/146/57
f 58/147/58 56/143/58 59/145/58
f 51/125/59 53/121/59 61/124/59 62/148/59
f 57/149/60 49/150/60 63/151/60 64/152/60
f 55/139/61 56/153/61 58/154/61 57/140/61
f 49/135/62 51/138/62 62/155/62 63/156/62
f 57/149/63 58/133/63 50/132/63 49/150/63
f 63/157/64 62/158/64 61/159/64 60/160/64 64/161/64
f 69/162/65 71/163/65 76/164/65 77/165/65
f 67/166/66 68/167/66 70/168/66 69/169/66
f 69/162/67 70/170/67 72/171/67 71/163/67
f 70/168/68 68/167/68 75/172/68
f 66/173/69 74/174/69 75/175/69
f 65/176/70 66/173/70 68/177/70 67/178/70
f 71/179/71 73/180/71 80/181/71 76/182/71
f 72/171/72 70/170/72 75/183/72
f 68/177/73 66/173/73 75/175/73
f 74/184/74 72/185/74 75/186/74
f 67/166/75 69/169/75 77/187/75 78/188/75
f 73/189/76 65/190/76 79/191/76 80/192/76
f 71/179/77 72/193/77 74/194/77 73/180/77
f 65/176/78 67/178/78 78/195/78 79/196/78
f 73/189/79 74/197/79 66/198/79 65/190/79
f 79/199/80 78/200/80 77/201/80 76/202/80 80/203/80
f 85/204/81 87/205/81 92/206/81 93/207/81
f 83/208/82 84/209/82 86/210/82 85/211/82
f 85/204/83 86/212/83 88/213/83 87/205/83
f 86/214/84 84/215/84 91/216/84
f 82/217/85 90/218/85 91/219/85
f 81/220/86 82/221/86 84/222/86 83/223/86
f 87/205/87 89/224/87 96/225/87 92/206/87
f 88/226/88 86/214/88 91/216/88
f 84/222/89 82/221/89 91/227/89
f 90/218/90 88/228/90 91/219/90
f 83/208/91 85/211/91 93/229/91 94/230/91
f 89/231/92 81/232/92 95/233/92 96/234/92
f 87/205/93 88/213/93 90/235/93 89/224/93
f 81/220/94 83/223/94 94/236/94 95/237/94
f 89/231/95 90/238/95 82/239/95 81/232/95
f 95/240/96 94/241/96 93/242/96 92/243/96 96/244/96
usemtl rock
f 97/245/97 114/246/97 116/247/97 113/248/97 115/249/97 140/250/97 138/251/97 139/252/97
f 97/245/97 100/253/97 118/254/97 117/255/97 114/246/97
f 98/256/98 97/245/98 139/252/98 142/257/98 141/258/98
f 99/259/99 97/245/99 98/256/99
f 99/259/97 100/253/97 97/245/97
f 121/260/100 118/261/100 100/262/100 119/263/100 122/264/100 120/265/100
f 143/266/97 140/250/97 115/249/97
f 148/267/101 101/268/101 98/269/101 141/270/101 147/271/101 145/272/101 144/273/101 146/274/101
f 99/275/102 98/276/102 102/277/102
f 100/278/103 99/279/103 103/280/103
f 151/281/104 123/282/104 101/283/104 148/284/104 149/285/104 150/286/104
f 101/287/105 102/277/105 98/276/105
f 102/288/106 103/280/106 99/279/106
f 119/289/107 100/278/107 103/280/107 124/290/107
f 104/291/108 126/292/108 125/293/108 127/294/108
f 104/291/109 101/283/109 123/282/109 128/295/109 126/292/109
f 102/296/110 101/283/110 104/291/110
f 102/296/111 104/291/111 103/297/111
f 129/298/112 124/299/112 103/297/112 104/291/112 127/294/112 130/300/112
f 105/301/97 106/302/97 107/303/97
f 118/254/97 121/304/97 108/305/97 106/302/97 105/301/97 117/255/97
f 115/249/97 113/248/97 105/301/97 107/303/97 153/306/97 152/307/97 143/266/97
f 116/247/97 105/301/97 113/248/97
f 121/304/113 120/308/113 108/305/113
f 114/246/97 117/255/97 105/301/97 116/247/97
f 111/309/114 106/310/114 108/311/114
f 109/312/115 107/313/115 106/314/115
f 110/315/116 157/316/116 156/317/116
f 153/318/117 107/319/117 155/320/117 154/321/117
f 122/322/118 108/323/118 120/324/118
f 106/325/119 111/326/119 109/327/119
f 107/313/120 109/312/120 110/328/120 156/329/120 158/330/120 155/331/120
f 110/315/121 128/332/121 123/333/121 151/334/121 157/316/121
f 124/290/122 129/335/122 111/336/122 108/337/122 122/338/122 119/289/122
f 111/326/123 112/339/123 109/327/123
f 112/339/124 110/340/124 109/327/124
f 128/295/125 110/340/125 112/339/125 125/293/125 126/292/125
f 112/339/126 130/300/126 127/294/126 125/293/126
f 112/339/127 111/326/127 129/298/127 130/300/127
f 132/341/97 131/342/97 138/251/97 140/250/97 143/266/97 152/307/97
f 138/251/97 131/342/97 142/257/97 139/252/97
f 131/342/97 132/341/97 133/343/97
f 131/342/97 133/343/97 134/344/97
f 131/342/97 134/344/97 147/345/97 141/258/97 142/257/97
f 154/346/128 132/347/128 152/348/128 153/349/128
f 133/350/129 132/351/129 135/352/129
f 134/353/130 133/354/130 136/355/130
f 147/356/131 134/357/131 137/358/131 145/359/131
f 158/360/132 135/361/132 132/347/132 154/346/132 155/362/132
f 133/350/133 135/352/133 136/363/133
f 136/355/134 137/364/134 134/353/134
f 144/365/135 145/359/135 137/358/135
f 157/366/136 151/281/136 150/286/136 135/367/136 158/368/136 156/369/136
f 149/285/137 136/370/137 135/367/137 150/286/137
f 146/371/138 137/372/138 136/370/138 149/285/138 148/284/138
f 144/373/139 137/374/139 146/375/139
